<svg width="64" height="64" viewBox="0 0 64 64" xmlns="http://www.w3.org/2000/svg" role="img" aria-label="WhatsApp">
  <circle cx="32" cy="32" r="30" fill="#ffffff" stroke="#d9d9d9" stroke-width="1"/>
  <path fill="#000000" d="M32 15c-9.4 0-17 7.3-17 16.3 0 2.9.9 5.6 2.3 8l-2.5 7.4 7.8-2.5c2.2 1.2 4.7 1.9 7.4 1.9 9.4 0 17-7.3 17-16.3S41.4 15 32 15zm0 29.4c-2.3 0-4.4-.6-6.2-1.7l-.4-.3-4.6 1.5 1.5-4.4-.3-.4c-1.3-2-2.1-4.3-2.1-6.8 0-7 6-12.7 13.5-12.7 7.4 0 13.5 5.7 13.5 12.7S39.4 44.4 32 44.4zm7.4-8.7c-.4-.2-2.1-1-2.4-1.2s-.6-.2-.8.2-.9 1.2-1.1 1.4c-.2.2-.4.3-.8.1s-1.6-.6-3-1.9c-1.1-1-1.8-2.1-2-2.5s0-.6.2-.8.4-.5.5-.7c.2-.2.2-.4.3-.6s0-.4 0-.6c0-.2-.8-2-1.1-2.8-.3-.8-.6-.7-.8-.7h-.7c-.2 0-.6.1-.9.4-.3.3-1.1 1-1.1 2.5s1.1 2.9 1.2 3.1c.2.3 2.1 3.2 5.1 4.5 2.9 1.3 2.9.9 3.4.9.5 0 1.7-.7 2-1.4.3-.7.3-1.3.2-1.4 0 0-.3-.2-.6-.3z"/>
</svg>
