<svg xmlns="http://www.w3.org/2000/svg" viewBox="0 0 1440 900" role="img" aria-labelledby="title"><title id="title">Representação gráfica de diferentes modelos de inteligência artificial</title><defs><linearGradient id="bg" x2="1" y2="1"><stop stop-color="#111d25"/><stop offset=".57" stop-color="#142e35"/><stop offset="1" stop-color="#111014"/></linearGradient><radialGradient id="sun"><stop stop-color="#fca64e" stop-opacity=".42"/><stop offset="1" stop-color="#fca64e" stop-opacity="0"/></radialGradient><filter id="glow"><feGaussianBlur stdDeviation="9"/></filter><filter id="grain"><feTurbulence type="fractalNoise" baseFrequency=".41" numOctaves="2" seed="15"/><feColorMatrix type="saturate" values="0"/><feComponentTransfer><feFuncA type="linear" slope=".09"/></feComponentTransfer></filter></defs><path fill="url(#bg)" d="M0 0h1440v900H0z"/><circle cx="950" cy="380" r="450" fill="url(#sun)"/><g stroke="#7caeb1" stroke-width="2" opacity=".3" fill="none"><path d="M0 200h1440M0 390h1440M0 580h1440M0 770h1440M180 0v900M420 0v900M660 0v900M900 0v900M1140 0v900"/></g><g stroke="#e1ac80" stroke-width="6" opacity=".7" fill="none"><path d="M240 280L480 190 694 338 920 215 1190 350M240 280L480 530 694 338 920 600 1190 350M480 190L480 530M694 338L694 660M920 215L920 600M480 530L694 660 920 600"/></g><g fill="#ffb16c" filter="url(#glow)" opacity=".7"><circle cx="240" cy="280" r="18"/><circle cx="480" cy="190" r="18"/><circle cx="480" cy="530" r="18"/><circle cx="694" cy="338" r="24"/><circle cx="694" cy="660" r="18"/><circle cx="920" cy="215" r="18"/><circle cx="920" cy="600" r="18"/><circle cx="1190" cy="350" r="18"/></g><g fill="#ffd7a6" stroke="#fff0cf" stroke-width="2"><circle cx="240" cy="280" r="12"/><circle cx="480" cy="190" r="12"/><circle cx="480" cy="530" r="12"/><circle cx="694" cy="338" r="17"/><circle cx="694" cy="660" r="12"/><circle cx="920" cy="215" r="12"/><circle cx="920" cy="600" r="12"/><circle cx="1190" cy="350" r="12"/></g><path fill="#fff" filter="url(#grain)" d="M0 0h1440v900H0z"/></svg>
