<svg xmlns="http://www.w3.org/2000/svg" viewBox="0 0 1440 900" role="img" aria-labelledby="title desc"><title id="title">Simulação artística da origem da Lua</title><desc id="desc">Terra primitiva e material incandescente em um cenário espacial ilustrativo, não uma fotografia.</desc><defs><radialGradient id="bg"><stop stop-color="#30394b"/><stop offset=".52" stop-color="#0f1420"/><stop offset="1" stop-color="#05080f"/></radialGradient><radialGradient id="earth" cx=".4" cy=".35"><stop stop-color="#ffc187"/><stop offset=".38" stop-color="#df6233"/><stop offset=".78" stop-color="#803022"/><stop offset="1" stop-color="#170d13"/></radialGradient><radialGradient id="moon" cx=".37" cy=".3"><stop stop-color="#ffe8c7"/><stop offset=".48" stop-color="#dfb98e"/><stop offset="1" stop-color="#684a40"/></radialGradient><radialGradient id="flare"><stop stop-color="#ffcf7f" stop-opacity=".7"/><stop offset="1" stop-color="#ff5d1e" stop-opacity="0"/></radialGradient><filter id="blur"><feGaussianBlur stdDeviation="34"/></filter><filter id="grain"><feTurbulence type="fractalNoise" baseFrequency=".43" numOctaves="3" seed="8" stitchTiles="stitch"/><feColorMatrix type="saturate" values="0"/><feComponentTransfer><feFuncA type="linear" slope=".085"/></feComponentTransfer></filter></defs><path fill="url(#bg)" d="M0 0h1440v900H0z"/><g fill="#fff" opacity=".65"><circle cx="92" cy="110" r="1.8"/><circle cx="300" cy="78" r="1"/><circle cx="495" cy="185" r="1.3"/><circle cx="620" cy="53" r="1.4"/><circle cx="825" cy="190" r="1.2"/><circle cx="1178" cy="129" r="1.8"/><circle cx="1360" cy="224" r="1"/><circle cx="1290" cy="655" r="1.3"/><circle cx="107" cy="747" r="1.4"/><circle cx="678" cy="820" r="1"/><circle cx="342" cy="414" r="1"/><circle cx="1110" cy="760" r="1.6"/></g><ellipse cx="830" cy="508" rx="460" ry="180" fill="url(#flare)" transform="rotate(-20 830 508)" filter="url(#blur)"/><path d="M246 741C563 586 790 563 1110 286" fill="none" stroke="#ed681f" stroke-width="96" opacity=".22" filter="url(#blur)"/><path d="M338 741C576 605 843 492 1170 330" fill="none" stroke="#ffbe68" stroke-width="13" stroke-linecap="round" stroke-dasharray="7 13 21 5" opacity=".82"/><circle cx="434" cy="558" r="350" fill="url(#earth)"/><g fill="none" stroke="#ffc47b" opacity=".27" stroke-width="11"><path d="M185 455c160-31 269 1 400 146"/><path d="M160 580c112-33 211-10 331 62"/><path d="M280 281c60 72 199 109 352 82"/></g><circle cx="1114" cy="322" r="166" fill="url(#moon)"/><circle cx="1114" cy="322" r="183" fill="none" stroke="#f3a757" stroke-width="3" opacity=".35"/><path fill="#fff" filter="url(#grain)" d="M0 0h1440v900H0z"/></svg>
